# xmcd
#
# Track frame offsets: 
#        150
#        13748
#        26240
#        39238
#        50625
#        63100
#        73868
#        87020
#        101523
#        115890
#        131288
#        143145
#        157248
#        172640
#        185765
#        198655
#        212973
#        226263
#        238668
#        248065
#        259820
#        270220
#        284075
#        295415
#        305085
#        315613
#        325578
#
# Disc length: 4612 seconds
#
# Revision: 1
# Processed by: cddbd v1.5.2PL0 Copyright (c) Steve Scherf et al.
# Submitted via: ExactAudioCopy v0.99pb4
#
DISCID=8f12021b
DTITLE=Chet Atkins - The Romantic Guitar
DYEAR=1991
DGENRE=Country
TTITLE0=You Needed Me
TTITLE1=Stranger On The Shore
TTITLE2=By The Time I Get To Phoenix
TTITLE3=Yours
TTITLE4=Malaguena
TTITLE5=Vaya Con Dios
TTITLE6=Long Long Ago
TTITLE7=The Last Waltz
TTITLE8=For The Good Times
TTITLE9=Autumn Leaves
TTITLE10=Three Little Words
TTITLE11=Lara's Theme
TTITLE12=Medley: In The Pines, Wildwood Flower, On Top Of Old Smokey
TTITLE13=Beautiful Dreamer
TTITLE14=In The Chapel In The Moonlight
TTITLE15=Yesterday
TTITLE16=Over The Rainbow
TTITLE17=Beautiful Brown Eyes
TTITLE18=Tennessee Waltz
TTITLE19=How's The World Treating You
TTITLE20=Sweet Dreams
TTITLE21=The Third Man Theme
TTITLE22=Cold Cold Heart
TTITLE23=Moon Of Manakoora
TTITLE24=Jamaica Farewell
TTITLE25=The Faded Love
TTITLE26=Chet's Medley: Four Walls, I Can't Stop Loving You, Send Me T
TTITLE26=he Pillow You Dream On, Five Hundred Miles, Oh Lonesome Me
EXTD=
EXTT0=
EXTT1=
EXTT2=
EXTT3=
EXTT4=
EXTT5=
EXTT6=
EXTT7=
EXTT8=
EXTT9=
EXTT10=
EXTT11=
EXTT12=
EXTT13=
EXTT14=
EXTT15=
EXTT16=
EXTT17=
EXTT18=
EXTT19=
EXTT20=
EXTT21=
EXTT22=
EXTT23=
EXTT24=
EXTT25=
EXTT26=
PLAYORDER=
